<svg xmlns="http://www.w3.org/2000/svg" height="512px" viewBox="0 0 64 64" width="512px" class=""><g><g id="Call_center" data-name="Call center"><path d="m43.26 49.84-12.62-6.13a2.014 2.014 0 0 0 -2.57.73l-2.89 4.59a2.009 2.009 0 0 1 -2.58.74 20.966 20.966 0 0 1 -4.93-3.44 20.966 20.966 0 0 1 -3.44-4.93 2.009 2.009 0 0 1 .74-2.58l4.59-2.89a2.014 2.014 0 0 0 .73-2.57l-6.13-12.62a2 2 0 0 0 -2.72-.9c-.532.265-1.136.6-1.769.982-2.998 1.821-6.671 4.878-6.671 8.178v1a31.564 31.564 0 0 0 31 31h1c3.3 0 6.357-3.673 8.178-6.671.384-.633.717-1.238.982-1.769a2 2 0 0 0 -.9-2.72z" fill="#9bc9ff" data-original="#9BC9FF" class="active-path" style="fill:#FFFFFF" data-old_color="#9bc9ff"></path><path d="" fill="#9bc9ff" data-original="#9BC9FF" class="active-path" style="fill:#FFFFFF" data-old_color="#9bc9ff"></path><g fill="#1e81ce"><path d="m43.7 48.94-12.629-6.132a3.023 3.023 0 0 0 -3.847 1.1l-2.889 4.592a1.007 1.007 0 0 1 -1.286.381 19.919 19.919 0 0 1 -4.65-3.23 19.963 19.963 0 0 1 -3.271-4.685 1.01 1.01 0 0 1 .375-1.3l4.6-2.894a3.023 3.023 0 0 0 1.09-3.849l-6.133-12.623a2.967 2.967 0 0 0 -1.731-1.526 3.021 3.021 0 0 0 -2.335.168c-.921.458-8.994 4.642-8.994 10.058v1a32.564 32.564 0 0 0 32 32h1c5.415 0 9.6-8.073 10.053-8.989a3.014 3.014 0 0 0 .17-2.339 2.967 2.967 0 0 0 -1.523-1.732zm-13.5-4.331 12.62 6.13a.985.985 0 0 1 .505.573 1.036 1.036 0 0 1 -.062.8c-.142.284-.307.591-.483.908l-14.466-7.091.6-.95a1.021 1.021 0 0 1 1.286-.37zm-18.309-23.877a1.055 1.055 0 0 1 .472-.114 1 1 0 0 1 .325.054.982.982 0 0 1 .573.5l6.127 12.614a1.018 1.018 0 0 1 -.361 1.293l-.956.6-7.092-14.461c.321-.178.626-.343.912-.486zm23.109 39.268h-1a30.564 30.564 0 0 1 -30-30v-1c0-2.516 2.68-5.008 5.265-6.734l7.1 14.492-1.933 1.217a3.009 3.009 0 0 0 -1.1 3.874 22 22 0 0 0 3.65 5.21 21.943 21.943 0 0 0 5.175 3.609 3 3 0 0 0 3.865-1.106l1.216-1.931 14.492 7.1c-1.721 2.588-4.214 5.269-6.73 5.269z" data-original="#1E81CE" class="" style="fill:#FFFFFF" data-old_color="#1E81CE"></path><path d="m43 2a18.987 18.987 0 0 0 -16.243 28.84l-1.727 6.918a1 1 0 0 0 1.212 1.212l6.918-1.727a19 19 0 1 0 9.84-35.243zm0 36a16.875 16.875 0 0 1 -9.13-2.672 1 1 0 0 0 -.782-.128l-5.714 1.426 1.426-5.714a1 1 0 0 0 -.128-.782 16.992 16.992 0 1 1 14.328 7.87z" data-original="#1E81CE" class="" style="fill:#FFFFFF" data-old_color="#1E81CE"></path><path d="m34.8 21.4a3 3 0 1 0 -4.8-2.4 1 1 0 0 0 2 0 1 1 0 1 1 1.6.8l-2.4 1.8a3.016 3.016 0 0 0 -1.2 2.4v1a1 1 0 0 0 1 1h4a1 1 0 0 0 0-2h-3a1 1 0 0 1 .4-.8z" data-original="#1E81CE" class="" style="fill:#FFFFFF" data-old_color="#1E81CE"></path><path d="m55.822 16.43a1 1 0 0 0 -.822-.43h-4a1 1 0 0 0 0 2h2.557l-2.494 6.649a1 1 0 0 0 .585 1.288 1.038 1.038 0 0 0 .352.063 1 1 0 0 0 .937-.649l3-8a1 1 0 0 0 -.115-.921z" data-original="#1E81CE" class="" style="fill:#FFFFFF" data-old_color="#1E81CE"></path><path d="m49.274 13.039a1 1 0 0 0 -1.236.686l-4 14a1 1 0 0 0 .688 1.236.962.962 0 0 0 .274.039 1 1 0 0 0 .961-.725l4-14a1 1 0 0 0 -.687-1.236z" data-original="#1E81CE" class="" style="fill:#FFFFFF" data-old_color="#1E81CE"></path><path d="m43 22h-1v-5a1 1 0 0 0 -1.832-.555l-4 6a1 1 0 0 0 .832 1.555h3v1a1 1 0 0 0 2 0v-1h1a1 1 0 0 0 0-2zm-3 0h-1.132l1.132-1.7z" data-original="#1E81CE" class="" style="fill:#FFFFFF" data-old_color="#1E81CE"></path></g></g></g></svg>