<svg xmlns="http://www.w3.org/2000/svg" height="512px" viewBox="0 0 512 512.00102" width="512px" class=""><g><path d="m274.601562 168.46875c38.007813 0 68.929688 30.921875 68.929688 68.929688 0 4.210937 3.414062 7.621093 7.621094 7.621093h30.496094c4.210937 0 7.625-3.410156 7.625-7.621093 0-63.230469-51.441407-114.671876-114.671876-114.671876-4.210937 0-7.625 3.414063-7.625 7.625v30.492188c0 4.210938 3.414063 7.625 7.625 7.625zm7.625-30.203125c48.753907 3.714844 87.792969 42.753906 91.507813 91.507813h-15.300781c-3.636719-40.34375-35.863282-72.570313-76.210938-76.210938v-15.296875zm0 0" data-original="#000000" class="active-path" data-old_color="#000000" fill="#FFFFFF"></path><path d="m279.683594 106.816406c69.203125 0 125.5 56.296875 125.5 125.5 0 4.210938 3.414062 7.625 7.625 7.625h30.492187c4.210938 0 7.625-3.414062 7.625-7.625 0-94.421875-76.820312-171.242187-171.242187-171.242187-4.210938 0-7.621094 3.414062-7.621094 7.625v30.492187c0 4.210938 3.410156 7.625 7.621094 7.625zm7.625-30.3125c79.960937 3.867188 144.316406 68.226563 148.183594 148.1875h-15.265626c-3.839843-71.550781-61.367187-129.082031-132.917968-132.917968zm0 0" data-original="#000000" class="active-path" data-old_color="#000000" fill="#FFFFFF"></path><path d="m284.769531 45.742188c100.074219 0 181.488281 81.417968 181.488281 181.492187 0 4.207031 3.414063 7.621094 7.625 7.621094h30.492188c4.210938 0 7.625-3.414063 7.625-7.621094 0-25.816406-4.261719-51.105469-12.667969-75.15625-1.386719-3.976563-5.734375-6.074219-9.710937-4.683594-3.972656 1.390625-6.070313 5.738281-4.683594 9.710938 7.011719 20.0625 10.933594 41.054687 11.683594 62.503906h-15.261719c-3.925781-102.425781-86.542969-185.042969-188.96875-188.96875v-15.261719c53.765625 1.886719 104.035156 23.71875 142.273437 61.957032 14.910157 14.910156 27.441407 31.769531 37.253907 50.109374 1.984375 3.714844 6.605469 5.113282 10.316406 3.128907 3.714844-1.988281 5.113281-6.605469 3.128906-10.320313-10.519531-19.664062-23.949219-37.730468-39.917969-53.699218-42.917968-42.917969-99.980468-66.554688-160.675781-66.554688-4.210937 0-7.625 3.414062-7.625 7.625v30.492188c0 4.210937 3.414063 7.625 7.625 7.625zm0 0" data-original="#000000" class="active-path" data-old_color="#000000" fill="#FFFFFF"></path><path d="m426.28125 308.117188c-6.667969-6.671876-15.53125-10.34375-24.964844-10.34375-9.429687 0-18.296875 3.671874-24.964844 10.34375l-37.589843 37.589843c-16.453125 16.453125-43.222657 16.453125-59.675781 0l-112.792969-112.796875c-16.453125-16.453125-16.453125-43.222656-.003907-59.671875l37.59375-37.59375c6.667969-6.667969 10.34375-15.535156 10.34375-24.964843 0-9.429688-3.675781-18.296876-10.34375-24.964844l-75.386718-75.375c-13.765625-13.765625-36.164063-13.765625-49.929688 0l-28.871094 28.871094c-32.046874 32.039062-49.695312 74.644531-49.695312 119.957031 0 45.316406 17.648438 87.917969 49.695312 119.960937l13.964844 13.964844c2.976563 2.976562 7.804688 2.976562 10.78125 0 2.976563-2.980469 2.976563-7.804688 0-10.78125l-13.964844-13.964844c-29.164062-29.160156-45.230468-67.933594-45.230468-109.179687 0-38.691407 14.136718-75.207031 39.96875-103.652344l103.617187 103.617187-3.320312 3.320313c-22.398438 22.398437-22.398438 58.84375 0 81.238281l112.792969 112.796875c22.398437 22.394531 58.839843 22.394531 81.238281.003907l3.324219-3.328126 103.601562 103.605469c-17.449219 15.804688-38.339844 27.5-60.867188 33.976563-54.03125 15.507812-112.253906.480468-151.949218-39.222656l-143.796875-143.800782c-2.980469-2.976562-7.804688-2.976562-10.78125 0-2.976563 2.980469-2.976563 7.804688 0 10.78125l143.796875 143.800782c32.253906 32.261718 75.636718 49.699218 120.066406 49.695312 15.636719 0 31.417969-2.160156 46.875-6.597656 27.4375-7.890625 52.671875-22.792969 72.976562-43.097656l28.871094-28.871094c13.765625-13.765625 13.765625-36.164063 0-49.929688zm-360.414062-263.515626 23.480468-23.480468c7.820313-7.820313 20.546875-7.820313 28.367188 0l75.386718 75.375c3.789063 3.789062 5.875 8.828125 5.875 14.183594 0 5.359374-2.085937 10.394531-5.875 14.1875l-23.488281 23.484374zm425.011718 378.050782-23.484375 23.480468-103.746093-103.75 23.488281-23.484374c3.785156-3.789063 8.824219-5.875 14.179687-5.875 5.359375 0 10.398438 2.085937 14.183594 5.875l75.378906 75.386718c3.789063 3.789063 5.875 8.828125 5.875 14.183594s-2.085937 10.394531-5.875 14.183594zm0 0" data-original="#000000" class="active-path" data-old_color="#000000" fill="#FFFFFF"></path></g></svg>